<svg width="1323" height="502" viewBox="0 0 1323 502" fill="none" xmlns="http://www.w3.org/2000/svg">
<path d="M1221 500L997.015 276.015C994.764 273.764 993.5 270.712 993.5 267.529V230.435C993.5 227.274 992.252 224.24 990.028 221.993L902.59 133.677C897.87 128.909 890.158 128.938 885.473 133.74L882.318 136.974C877.714 141.693 870.165 141.814 865.413 137.244L773.984 49.3492C771.749 47.2003 768.768 46 765.667 46H552.5M552.5 46L459.263 137.409C454.455 142.122 446.712 141.959 442.107 137.048L436.715 131.296C431.989 126.254 423.992 126.236 419.243 131.256L334.783 220.53C332.675 222.758 331.5 225.709 331.5 228.777V267.476C331.5 270.69 330.211 273.77 327.921 276.025L99.5 501M552.5 46H421.939C418.775 46 415.739 47.2497 413.492 49.4772L250.508 211.023C248.261 213.25 245.225 214.5 242.061 214.5H205.471C202.288 214.5 199.236 215.764 196.985 218.015L1 414" stroke="url(#paint0_linear_165_12836)"/>
<path d="M63.5 209.5L183.001 92.4281C185.244 90.2307 188.259 89 191.399 89H282.57C285.729 89 288.76 87.7547 291.006 85.5342L331 46M331 46H419.5M331 46L291.015 6.01472C288.764 3.76428 285.712 2.5 282.529 2.5H79" stroke="url(#paint1_linear_165_12836)"/>
<path d="M1322 415.5L1127.52 220.525C1125.27 218.268 1122.21 217 1119.02 217H1079.49C1076.3 217 1073.23 215.726 1070.98 213.46L904.5 46M904.5 46H769M904.5 46H990M1258.5 210L1140.51 92.0147C1138.26 89.7643 1135.21 88.5 1132.03 88.5H1042.08C1039.13 88.5 1036.28 87.4116 1034.08 85.4429L990 46M990 46L1034.03 4.28857C1036.26 2.17693 1039.21 1 1042.28 1H1220" stroke="url(#paint2_linear_165_12836)"/>
<defs>
<linearGradient id="paint0_linear_165_12836" x1="611" y1="501" x2="611" y2="46" gradientUnits="userSpaceOnUse">
<stop/>
<stop offset="1" stop-color="#44424F"/>
</linearGradient>
<linearGradient id="paint1_linear_165_12836" x1="239.5" y1="209.5" x2="239.5" y2="2.5" gradientUnits="userSpaceOnUse">
<stop/>
<stop offset="1" stop-color="#44424F"/>
</linearGradient>
<linearGradient id="paint2_linear_165_12836" x1="1322" y1="328" x2="874" y2="49" gradientUnits="userSpaceOnUse">
<stop/>
<stop offset="1" stop-color="#44424F"/>
</linearGradient>
</defs>
</svg>
