<svg width="789" height="123" viewBox="-20 -20 829 163" fill="none" xmlns="http://www.w3.org/2000/svg">
  <path
    d="M2 89.8894C20.5 59.0561 72.5731 5.96044 133 2.38942C234.5 -3.60886 301.052 61.4304 332 77.3894C380.5 102.399 441.5 120.889 462 54.3894C472.804 19.3427 468.867 14.8894 477 14.8894C488 14.8894 491 47.3894 504 46.8894C517 46.3894 514.095 20.298 524 18.8894C538 16.8984 531.5 71.8984 553 83.3984C570.2 92.5984 578.089 80.2686 581.5 70.8894C587.5 54.3894 596.674 48.2519 604.5 77.3894C613.5 110.898 644 37.3984 649 22.8894C654.05 8.23519 661.5 3.89844 664.5 14.8894C666.917 23.7443 668 46.8894 678.5 46.8894C688.808 46.8894 685.851 18.8894 698.5 18.8894C709.5 18.8894 711.5 31.3894 710.5 54.3894C709.5 77.3894 727.682 56.8984 742 56.8984C754.5 56.8984 758 76.3894 767 96.3894C776 116.389 778.5 122.389 787 120.889"
    stroke="url(#paint0_linear)" stroke-width="3" stroke-linecap="round"
    stroke-dasharray="1600"
    stroke-dashoffset="1600">
    <animate
      attributeName="stroke-dashoffset"
      values="1600;0;1600"
      keyTimes="0;0.5;1"
      keySplines="0.4 0 0.7 1;0.4 0 0.7 1"
      dur="6s"
      repeatCount="indefinite"
      calcMode="spline" />
  </path>

  <circle cx="2" cy="89.8894" r="6" fill="#D200FF" />
  <circle cx="787" cy="120.889" r="6" fill="#920002" />

  <defs>
    <linearGradient id="paint0_linear" x1="179.5" y1="29.5" x2="617.5" y2="62" gradientUnits="userSpaceOnUse">
      <stop stop-color="#D200FF" />
      <stop offset="1" stop-color="#920002" />
    </linearGradient>
  </defs>
</svg>
