<svg width="32" height="32" viewBox="0 0 32 32" fill="none" xmlns="http://www.w3.org/2000/svg">
<path d="M16.0002 12C14.9393 12 13.9219 11.5786 13.1717 10.8284C12.4216 10.0783 12.0002 9.06087 12.0002 8C12.0002 6.93913 12.4216 5.92172 13.1717 5.17157C13.9219 4.42143 14.9393 4 16.0002 4C17.061 4 18.0784 4.42143 18.8286 5.17157C19.5787 5.92172 20.0002 6.93913 20.0002 8C20.0002 9.06087 19.5787 10.0783 18.8286 10.8284C18.0784 11.5786 17.061 12 16.0002 12ZM7.3335 28C6.27263 28 5.25521 27.5786 4.50507 26.8284C3.75492 26.0783 3.3335 25.0609 3.3335 24C3.3335 22.9391 3.75492 21.9217 4.50507 21.1716C5.25521 20.4214 6.27263 20 7.3335 20C8.39436 20 9.41178 20.4214 10.1619 21.1716C10.9121 21.9217 11.3335 22.9391 11.3335 24C11.3335 25.0609 10.9121 26.0783 10.1619 26.8284C9.41178 27.5786 8.39436 28 7.3335 28ZM24.6668 28C23.606 28 22.5885 27.5786 21.8384 26.8284C21.0883 26.0783 20.6668 25.0609 20.6668 24C20.6668 22.9391 21.0883 21.9217 21.8384 21.1716C22.5885 20.4214 23.606 20 24.6668 20C25.7277 20 26.7451 20.4214 27.4953 21.1716C28.2454 21.9217 28.6668 22.9391 28.6668 24C28.6668 25.0609 28.2454 26.0783 27.4953 26.8284C26.7451 27.5786 25.7277 28 24.6668 28Z" stroke="white" stroke-width="2"/>
<path opacity="0.5" d="M26.6668 17.333C26.6686 15.8194 26.3475 14.3229 25.7248 12.9434C25.1022 11.5638 24.1924 10.3329 23.0562 9.33301M5.3335 17.333C5.33171 15.8194 5.65285 14.3229 6.2755 12.9434C6.89814 11.5638 7.80795 10.3329 8.94417 9.33301M13.3335 27.6637C14.2047 27.8877 15.1007 28.0006 16.0002 27.9997C16.8997 28.0006 17.7957 27.8877 18.6668 27.6637" stroke="white" stroke-width="2" stroke-linecap="round"/>
</svg>
