<svg width="32" height="32" viewBox="0 0 32 32" fill="none" xmlns="http://www.w3.org/2000/svg">
<path d="M29.3332 16.0003C29.3332 23.3643 23.3638 29.3337 15.9998 29.3337C8.63584 29.3337 2.6665 23.3643 2.6665 16.0003C2.6665 8.63632 8.63584 2.66699 15.9998 2.66699C23.3638 2.66699 29.3332 8.63632 29.3332 16.0003Z" stroke="white" stroke-width="1.25"/>
<path opacity="0.5" d="M25.3332 25.3337L23.3332 23.3337M25.3332 6.66699L23.3332 8.66699M6.6665 25.3337L8.6665 23.3337M6.6665 6.66699L8.6665 8.66699M2.6665 16.0003H5.33317M26.6665 16.0003H29.3332M15.9998 5.33366V2.66699" stroke="white" stroke-width="1.25" stroke-linecap="round"/>
<path d="M13.4944 19.1522C13.123 18.7808 12.8283 18.3398 12.6273 17.8544C12.4262 17.3691 12.3228 16.8489 12.3228 16.3236C12.3228 15.7983 12.4262 15.2781 12.6273 14.7927C12.8283 14.3074 13.123 13.8664 13.4944 13.4949C13.8659 13.1234 14.3069 12.8288 14.7922 12.6278C15.2776 12.4267 15.7978 12.3232 16.3231 12.3232C16.8484 12.3232 17.3686 12.4267 17.854 12.6278C18.3393 12.8288 18.7803 13.1234 19.1518 13.4949C19.7464 14.0896 20.1611 15.3229 20.4464 16.6229C20.8744 18.5682 21.0891 19.5403 20.3144 20.3163C19.5411 21.0896 18.5678 20.8762 16.6224 20.4469C15.3224 20.1616 14.0891 19.7469 13.4944 19.1522Z" stroke="white" stroke-width="1.25"/>
</svg>
