<svg width="32" height="32" viewBox="0 0 32 32" fill="none" xmlns="http://www.w3.org/2000/svg">
<path d="M20.1932 6.94431C19.6643 6.33329 18.9857 5.87012 18.224 5.60013C17.4622 5.33015 16.6434 5.26262 15.8478 5.40415C15.0521 5.54568 14.3068 5.89142 13.6849 6.40751C13.0629 6.92361 12.5857 7.59237 12.2999 8.34831C11.6855 8.07334 11.0116 7.95788 10.3407 8.01263C9.66976 8.06737 9.02351 8.29055 8.46178 8.66149C7.90006 9.03242 7.44103 9.53912 7.12722 10.1346C6.81341 10.7302 6.65497 11.3953 6.66657 12.0683M20.1932 6.94431C21.2888 6.59794 22.4607 6.5734 23.5697 6.87361C24.6788 7.17383 25.6783 7.78616 26.4495 8.63784C27.2208 9.48952 27.7312 10.5447 27.9203 11.678C28.1093 12.8113 27.9689 13.9751 27.5159 15.031M20.1932 6.94431C19.0862 7.2957 18.1047 7.96015 17.3671 8.85738C16.6296 9.75461 16.1677 10.8462 16.0372 12.0003M6.66657 12.0683C6.21018 11.9756 5.73943 11.9783 5.28467 12.0787C4.82991 12.1791 4.40123 12.3737 4.02627 12.6499C3.65131 12.9261 3.33839 13.2778 3.10769 13.6823C2.87698 14.0869 2.7336 14.5353 2.6868 14.9987C2.64 15.462 2.6908 15.93 2.83595 16.3725C2.9811 16.815 3.21736 17.2222 3.52951 17.5679C3.84165 17.9135 4.22276 18.1898 4.64826 18.3792C5.07375 18.5685 5.5342 18.6665 5.99991 18.667H12.0666M6.66657 12.0683C6.68391 13.067 7.06657 13.9736 7.68524 14.667M27.5159 15.031C27.0582 14.7972 26.5527 14.6723 26.0388 14.6663C25.5248 14.6602 25.0165 14.7731 24.5534 14.996C24.0903 15.219 23.6851 15.546 23.3693 15.9515C23.0536 16.357 22.8359 16.8301 22.7332 17.3336M27.5159 15.031C28.1829 15.3712 28.7159 15.926 29.029 16.6061C29.3422 17.2862 29.4173 18.0519 29.2422 18.7799C29.0671 19.5078 28.652 20.1556 28.0638 20.6189C27.4756 21.0822 26.7486 21.3339 25.9999 21.3336C25.6269 21.3339 25.2594 21.4245 24.929 21.5976C24.5986 21.7708 24.315 22.0214 24.1025 22.328C23.89 22.6346 23.7548 22.988 23.7086 23.3582C23.6625 23.7284 23.7066 24.1042 23.8372 24.4536L24.6666 26.667M12.0666 18.667C12.2203 19.4199 12.6294 20.0966 13.2246 20.5825C13.8199 21.0685 14.5648 21.3338 15.3332 21.3336C15.6732 21.3336 15.8426 21.3336 15.9999 21.3523C16.3857 21.3982 16.7569 21.5278 17.0874 21.732C17.4179 21.9363 17.6997 22.2104 17.9132 22.535C17.9999 22.667 18.0759 22.819 18.2279 23.1216L19.9999 26.667M12.0666 18.667C11.9404 18.0484 11.9925 17.4068 12.2167 16.8167C12.4409 16.2266 12.8281 15.7123 13.3332 15.3336" stroke="white" stroke-width="1.5" stroke-linecap="round" stroke-linejoin="round"/>
</svg>
