<svg width="32" height="32" viewBox="0 0 32 32" fill="none" xmlns="http://www.w3.org/2000/svg">
<path d="M29.3334 29.334H2.66675" stroke="white" stroke-width="2" stroke-linecap="round"/>
<path opacity="0.5" d="M28 29.334V19.334C28 18.8036 27.7893 18.2948 27.4142 17.9198C27.0391 17.5447 26.5304 17.334 26 17.334H22C21.4696 17.334 20.9609 17.5447 20.5858 17.9198C20.2107 18.2948 20 18.8036 20 19.334V29.334" stroke="white" stroke-width="2"/>
<path d="M20 29.3337V6.66699C20 4.78166 20 3.83899 19.4133 3.25366C18.8293 2.66699 17.8867 2.66699 16 2.66699C14.1133 2.66699 13.172 2.66699 12.5867 3.25366C12 3.83766 12 4.78033 12 6.66699V29.3337" stroke="white" stroke-width="2"/>
<path opacity="0.5" d="M12 29.3337V12.667C12 12.1366 11.7893 11.6279 11.4142 11.2528C11.0391 10.8777 10.5304 10.667 10 10.667H6C5.46957 10.667 4.96086 10.8777 4.58579 11.2528C4.21071 11.6279 4 12.1366 4 12.667V29.3337" stroke="white" stroke-width="2"/>
</svg>
