<svg width="24" height="24" viewBox="0 0 24 24" fill="none" xmlns="http://www.w3.org/2000/svg">
<path d="M8.50201 5.38659C8.64192 5.25169 8.72401 5.06774 8.73096 4.87351C8.73791 4.67928 8.66919 4.48993 8.53928 4.34537C8.40937 4.20081 8.22842 4.11233 8.03455 4.09856C7.84068 4.0848 7.64904 4.14683 7.50001 4.27159L5.76001 5.83559C5.02401 6.49859 4.41301 7.04759 3.99401 7.54559C3.55301 8.07059 3.23901 8.63359 3.23901 9.32959C3.23901 10.0246 3.55301 10.5876 3.99401 11.1116C4.41401 11.6106 5.02401 12.1606 5.76001 12.8226L7.50001 14.3866C7.57286 14.4546 7.65853 14.5074 7.75202 14.5419C7.8455 14.5764 7.94493 14.592 8.04449 14.5876C8.14406 14.5833 8.24175 14.5591 8.33188 14.5166C8.422 14.4741 8.50275 14.414 8.5694 14.3399C8.63604 14.2658 8.68726 14.1792 8.72005 14.0851C8.75283 13.991 8.76654 13.8913 8.76036 13.7918C8.75418 13.6924 8.72824 13.5951 8.68405 13.5058C8.63986 13.4165 8.57832 13.3369 8.50301 13.2716L6.80701 11.7446C6.01901 11.0356 5.48701 10.5546 5.14401 10.1466C4.81401 9.75359 4.74101 9.52459 4.74101 9.32959C4.74101 9.13359 4.81301 8.90459 5.14401 8.51159C5.48801 8.10259 6.01901 7.62259 6.80701 6.91359L8.50201 5.38659ZM15.443 10.4976C15.509 10.4243 15.5887 10.3648 15.6777 10.3223C15.7667 10.2799 15.8632 10.2554 15.9616 10.2503C16.0601 10.2452 16.1586 10.2596 16.2515 10.2926C16.3444 10.3256 16.4298 10.3765 16.503 10.4426L18.24 12.0056C18.976 12.6686 19.587 13.2186 20.006 13.7166C20.447 14.2406 20.761 14.8046 20.761 15.4996C20.761 16.1946 20.447 16.7586 20.006 17.2826C19.586 17.7806 18.976 18.3306 18.24 18.9926L16.502 20.5576C16.4287 20.6234 16.3432 20.6742 16.2503 20.707C16.1574 20.7398 16.0589 20.754 15.9606 20.7488C15.8622 20.7435 15.7658 20.7189 15.6769 20.6765C15.588 20.634 15.5084 20.5744 15.4425 20.5011C15.3767 20.4278 15.3259 20.3423 15.2931 20.2494C15.2603 20.1565 15.2461 20.058 15.2513 19.9596C15.2566 19.8613 15.2812 19.7649 15.3237 19.676C15.3661 19.5871 15.4257 19.5074 15.499 19.4416L17.195 17.9156C17.983 17.2056 18.515 16.7256 18.858 16.3166C19.188 15.9246 19.261 15.6946 19.261 15.4996C19.261 15.3046 19.189 15.0746 18.858 14.6826C18.514 14.2726 17.983 13.7926 17.195 13.0836L15.5 11.5566C15.3522 11.4236 15.2632 11.2373 15.2527 11.0387C15.2422 10.8401 15.311 10.6455 15.444 10.4976" fill="white"/>
<path opacity="0.5" d="M14.18 4.27531C14.2752 4.30062 14.3645 4.34445 14.4428 4.4043C14.5211 4.46414 14.5868 4.53882 14.6362 4.62407C14.6856 4.70932 14.7177 4.80348 14.7308 4.90115C14.7438 4.99882 14.7374 5.0981 14.712 5.1933L10.725 20.1933C10.6738 20.3856 10.5483 20.5497 10.3762 20.6494C10.204 20.7492 9.99929 20.7765 9.80701 20.7253C9.61473 20.6741 9.45065 20.5486 9.35088 20.3765C9.25111 20.2043 9.22382 19.9996 9.27501 19.8073L13.262 4.80731C13.2873 4.71208 13.3312 4.62278 13.391 4.5445C13.4508 4.46622 13.5255 4.4005 13.6108 4.35109C13.696 4.30169 13.7902 4.26956 13.8879 4.25656C13.9855 4.24356 14.0848 4.24993 14.18 4.27531Z" fill="white"/>
</svg>
