<svg width="32" height="32" viewBox="0 0 32 32" fill="none" xmlns="http://www.w3.org/2000/svg">
<path opacity="0.5" d="M4 13.8897C4 9.62566 4 7.49366 4.504 6.77632C5.00667 6.06033 7.01067 5.37366 11.02 4.00166L11.784 3.74033C13.8733 3.02433 14.9173 2.66699 16 2.66699C17.0827 2.66699 18.1267 3.02433 20.216 3.74033L20.98 4.00166C24.9893 5.37366 26.9933 6.06033 27.496 6.77632C28 7.49366 28 9.62699 28 13.8897V15.9883C28 23.5057 22.348 27.155 18.8013 28.703C17.84 29.123 17.36 29.3337 16 29.3337C14.64 29.3337 14.16 29.123 13.1987 28.703C9.652 27.1537 4 23.507 4 15.9883V13.8897Z" stroke="white" stroke-width="1.25"/>
<path d="M12.6665 16.534L14.5718 18.6673L19.3332 13.334" stroke="white" stroke-width="1.25" stroke-linecap="round" stroke-linejoin="round"/>
</svg>
