<svg width="32" height="32" viewBox="0 0 32 32" fill="none" xmlns="http://www.w3.org/2000/svg">
<path fill-rule="evenodd" clip-rule="evenodd" d="M20.8906 9.33301C20.8906 9.06779 20.996 8.81344 21.1835 8.6259C21.3711 8.43836 21.6254 8.33301 21.8906 8.33301H29.3333C29.5985 8.33301 29.8529 8.43836 30.0404 8.6259C30.2279 8.81344 30.3333 9.06779 30.3333 9.33301V16.7277C30.3333 16.9929 30.2279 17.2472 30.0404 17.4348C29.8529 17.6223 29.5985 17.7277 29.3333 17.7277C29.0681 17.7277 28.8137 17.6223 28.6262 17.4348C28.4386 17.2472 28.3333 16.9929 28.3333 16.7277V10.333H21.8906C21.6254 10.333 21.3711 10.2277 21.1835 10.0401C20.996 9.85258 20.8906 9.59822 20.8906 9.33301Z" fill="white"/>
<path opacity="0.5" d="M26.9159 10.333L18.7892 18.4037C18.1039 19.0837 17.6599 19.5237 17.2892 19.8037C16.9426 20.0663 16.7812 20.0957 16.6732 20.0957C16.5666 20.0957 16.4039 20.0663 16.0572 19.8023C15.6879 19.5223 15.2439 19.0837 14.5586 18.4023L14.1932 18.0397C13.5666 17.417 13.0279 16.8797 12.5386 16.509C12.0132 16.1103 11.4306 15.809 10.7119 15.809C9.99323 15.809 9.41056 16.1117 8.88522 16.5103C8.39589 16.8823 7.85856 17.4197 7.23189 18.0423L1.96122 23.2917C1.86281 23.383 1.78381 23.4933 1.72893 23.6159C1.67404 23.7384 1.64441 23.8708 1.64179 24.005C1.63917 24.1393 1.66362 24.2727 1.71368 24.3973C1.76374 24.5219 1.83839 24.6352 1.93316 24.7303C2.02794 24.8254 2.1409 24.9005 2.26532 24.951C2.38974 25.0016 2.52306 25.0265 2.65733 25.0244C2.7916 25.0223 2.92407 24.9932 3.04684 24.9387C3.16961 24.8843 3.28015 24.8057 3.37189 24.7077L8.59722 19.505C9.28256 18.8237 9.72656 18.385 10.0959 18.1023C10.4426 17.8397 10.6052 17.809 10.7119 17.809C10.8186 17.809 10.9826 17.8383 11.3292 18.1023C11.6999 18.3823 12.1426 18.8223 12.8292 19.5037L13.1946 19.8677C13.8212 20.489 14.3586 21.025 14.8479 21.3957C15.3732 21.7943 15.9546 22.0957 16.6732 22.0957C17.3906 22.0957 17.9732 21.7943 18.4986 21.397C18.9879 21.025 19.5266 20.4903 20.1519 19.8677L28.3332 11.7463V10.333H26.9159Z" fill="white"/>
</svg>
