<svg width="60" height="60" viewBox="0 0 60 60" fill="none" xmlns="http://www.w3.org/2000/svg">
<rect x="0.5" y="0.5" width="59" height="59" rx="14.5" fill="#1B1924"/>
<rect x="0.5" y="0.5" width="59" height="59" rx="14.5" stroke="url(#paint0_linear_195_915)"/>
<path opacity="0.4" d="M30 15C38.2845 15 45 21.7155 45 30C45 38.2845 38.2845 45 30 45C21.7155 45 15 38.2845 15 30C14.9976 28.0047 15.3945 26.029 16.1673 24.1894C16.9401 22.3498 18.0733 20.6834 19.5 19.2885" stroke="white" stroke-width="2.25" stroke-linecap="round"/>
<path opacity="0.7" d="M19.5 30C19.5 32.0767 20.1158 34.1068 21.2696 35.8335C22.4233 37.5602 24.0632 38.906 25.9818 39.7007C27.9004 40.4955 30.0116 40.7034 32.0484 40.2982C34.0852 39.8931 35.9562 38.8931 37.4246 37.4246C38.8931 35.9562 39.8931 34.0852 40.2982 32.0484C40.7034 30.0116 40.4955 27.9004 39.7007 25.9818C38.906 24.0632 37.5602 22.4233 35.8335 21.2696C34.1068 20.1158 32.0767 19.5 30 19.5" stroke="white" stroke-width="2.25" stroke-linecap="round"/>
<path d="M30 36C31.5913 36 33.1174 35.3679 34.2426 34.2426C35.3679 33.1174 36 31.5913 36 30C36 28.4087 35.3679 26.8826 34.2426 25.7574C33.1174 24.6321 31.5913 24 30 24" stroke="white" stroke-width="2.25" stroke-linecap="round"/>
<defs>
<linearGradient id="paint0_linear_195_915" x1="4.54546" y1="7.03125" x2="59.7583" y2="58.3023" gradientUnits="userSpaceOnUse">
<stop stop-color="#58026B"/>
<stop offset="1" stop-color="#E87FFF"/>
</linearGradient>
</defs>
</svg>
