<svg width="60" height="60" viewBox="0 0 60 60" fill="none" xmlns="http://www.w3.org/2000/svg">
<rect x="0.5" y="0.5" width="59" height="59" rx="14.5" fill="#1B1924"/>
<rect x="0.5" y="0.5" width="59" height="59" rx="14.5" stroke="url(#paint0_linear_195_875)"/>
<path opacity="0.5" d="M16.5 45H43.5" stroke="white" stroke-width="2.25" stroke-linecap="round" stroke-linejoin="round"/>
<path d="M16.5 28.5C16.5 27.0855 16.5 26.379 16.9395 25.9395C17.379 25.5 18.0855 25.5 19.5 25.5C20.9145 25.5 21.621 25.5 22.0605 25.9395C22.5 26.379 22.5 27.0855 22.5 28.5V37.5C22.5 38.9145 22.5 39.621 22.0605 40.0605C21.621 40.5 20.9145 40.5 19.5 40.5C18.0855 40.5 17.379 40.5 16.9395 40.0605C16.5 39.621 16.5 38.9145 16.5 37.5V28.5ZM27 22.5C27 21.0855 27 20.379 27.4395 19.9395C27.879 19.5 28.5855 19.5 30 19.5C31.4145 19.5 32.121 19.5 32.5605 19.9395C33 20.379 33 21.0855 33 22.5V37.5C33 38.9145 33 39.621 32.5605 40.0605C32.121 40.5 31.4145 40.5 30 40.5C28.5855 40.5 27.879 40.5 27.4395 40.0605C27 39.621 27 38.9145 27 37.5V22.5ZM37.5 18C37.5 16.5855 37.5 15.879 37.9395 15.4395C38.379 15 39.0855 15 40.5 15C41.9145 15 42.621 15 43.0605 15.4395C43.5 15.879 43.5 16.5855 43.5 18V37.5C43.5 38.9145 43.5 39.621 43.0605 40.0605C42.621 40.5 41.9145 40.5 40.5 40.5C39.0855 40.5 38.379 40.5 37.9395 40.0605C37.5 39.621 37.5 38.9145 37.5 37.5V18Z" stroke="white" stroke-width="2.25"/>
<defs>
<linearGradient id="paint0_linear_195_875" x1="4.54546" y1="7.03125" x2="59.7583" y2="58.3023" gradientUnits="userSpaceOnUse">
<stop stop-color="#58026B"/>
<stop offset="1" stop-color="#E87FFF"/>
</linearGradient>
</defs>
</svg>
