<svg width="22" height="22" viewBox="0 0 22 22" fill="none" xmlns="http://www.w3.org/2000/svg">
<path opacity="0.5" d="M11 21C6.286 21 3.929 21 2.464 19.535C1 18.072 1 15.714 1 11C1 6.286 1 3.929 2.464 2.464C3.93 1 6.286 1 11 1C15.714 1 18.071 1 19.535 2.464C21 3.93 21 6.286 21 11C21 15.714 21 18.071 19.535 19.535C18.072 21 15.714 21 11 21Z" stroke="white" stroke-width="1.5"/>
<path d="M12.4229 16.362L15.9349 7.196C16.0015 7.03783 16.0194 6.8634 15.9864 6.69499C15.9534 6.52658 15.8709 6.37184 15.7495 6.25054C15.6281 6.12925 15.4733 6.0469 15.3048 6.01403C15.1364 5.98115 14.962 5.99925 14.8039 6.066L5.63788 9.577C4.80788 9.896 4.78088 11.06 5.59788 11.308L9.07488 12.365C9.34488 12.447 9.55288 12.655 9.63488 12.925L10.6919 16.402C10.9399 17.219 12.1039 17.192 12.4219 16.362H12.4229Z" stroke="white" stroke-width="1.5"/>
</svg>
