<svg width="48" height="48" viewBox="0 0 48 48" fill="none" xmlns="http://www.w3.org/2000/svg">
<path d="M24 34C31.732 34 38 27.732 38 20C38 12.268 31.732 6 24 6C16.268 6 10 12.268 10 20C10 27.732 16.268 34 24 34Z" stroke="white" stroke-width="3"/>
<path d="M14 9.106C15.17 10.21 17.58 13.232 17.862 16.474C18.124 19.504 20.054 21.966 23 22C24.132 22.012 25.278 21.164 25.274 19.99C25.274 19.626 25.214 19.256 25.126 18.914C24.9771 18.3894 25.0211 17.8289 25.25 17.334C26.164 15.378 27.964 14.852 29.39 13.79C30.022 13.318 30.598 12.822 30.854 12.422C31.554 11.316 32.258 9.106 31.906 8M38 22C37.56 23.24 37.25 26.5 32.29 26.552C32.29 26.552 27.9 26.552 26.582 29.034C25.528 31.02 26.142 33.174 26.582 34" stroke="white" stroke-width="3"/>
<g opacity="0.6">
<path d="M8 33.124C9.9336 35.2885 12.3028 37.0199 14.9522 38.2049C17.6017 39.3899 20.4716 40.0016 23.374 40C34.766 40 44 30.766 44 19.374C44 13.266 41.344 7.776 37.124 4" stroke="white" stroke-width="3" stroke-linecap="round"/>
<path d="M24 44V40M24 44H20M24 44H28" stroke="white" stroke-width="3" stroke-linecap="round"/>
</g>
</svg>
