<svg width="140" height="125" viewBox="0 0 140 125" fill="none" xmlns="http://www.w3.org/2000/svg">
<path d="M28.5 122C12.9689 109.794 3 90.882 3 69.6515C3 32.8409 32.9689 3 69.9375 3C106.906 3 136.875 32.8409 136.875 69.6515C136.875 90.882 126.906 109.794 111.375 122" stroke="#373737" stroke-width="5" stroke-linecap="round"/>
<path d="M28.5 122C12.9689 109.794 3 90.882 3 69.6515C3 32.8409 32.9689 3 69.9375 3C106.906 3 136.875 32.8409 136.875 69.6515C136.875 81.9691 133.519 93.5064 127.669 103.406" stroke="url(#paint0_linear_154_680)" stroke-width="5" stroke-linecap="round"/>
<path d="M53.8045 53.3827C54.5901 53.3827 55.3457 53.5145 56.0716 53.778C56.8024 54.0415 57.4537 54.4616 58.0254 55.0383C58.6021 55.615 59.057 56.3806 59.3901 57.3351C59.7282 58.2847 59.8997 59.4505 59.9047 60.8327C59.9047 62.1302 59.758 63.2886 59.4647 64.3078C59.1763 65.322 58.7612 66.1846 58.2193 66.8955C57.6774 67.6064 57.0236 68.1483 56.258 68.5212C55.4924 68.8891 54.6373 69.0731 53.6927 69.0731C52.6735 69.0731 51.7736 68.8767 50.9931 68.4839C50.2126 68.0862 49.5837 67.5468 49.1064 66.8657C48.6341 66.1796 48.3482 65.409 48.2488 64.5539H51.4331C51.5574 65.1107 51.8184 65.5432 52.2161 65.8515C52.6138 66.1547 53.106 66.3064 53.6927 66.3064C54.687 66.3064 55.4427 65.8738 55.9597 65.0088C56.4768 64.1388 56.7378 62.9481 56.7427 61.4367H56.6383C56.4097 61.8841 56.1014 62.2694 55.7136 62.5926C55.3258 62.9108 54.8809 63.1569 54.3788 63.3309C53.8816 63.5049 53.3521 63.5919 52.7903 63.5919C51.8905 63.5919 51.0876 63.3806 50.3816 62.958C49.6756 62.5354 49.1188 61.9537 48.7111 61.213C48.3035 60.4722 48.0996 59.627 48.0996 58.6775C48.0947 57.6533 48.3308 56.741 48.8081 55.9406C49.2854 55.1402 49.9516 54.5138 50.8067 54.0613C51.6668 53.604 52.666 53.3778 53.8045 53.3827ZM53.8269 55.9182C53.3248 55.9182 52.8773 56.0376 52.4846 56.2762C52.0968 56.5148 51.7886 56.8355 51.5599 57.2382C51.3361 57.6409 51.2268 58.0908 51.2317 58.588C51.2317 59.0901 51.3411 59.5425 51.5599 59.9452C51.7836 60.343 52.0869 60.6611 52.4697 60.8998C52.8575 61.1334 53.2999 61.2503 53.7971 61.2503C54.17 61.2503 54.5155 61.1807 54.8337 61.0415C55.1518 60.9023 55.4278 60.7108 55.6614 60.4672C55.9001 60.2187 56.0865 59.9328 56.2207 59.6096C56.355 59.2865 56.4221 58.9434 56.4221 58.5805C56.4171 58.0983 56.3028 57.6558 56.079 57.2531C55.8553 56.8504 55.5471 56.5273 55.1543 56.2836C54.7616 56.04 54.3191 55.9182 53.8269 55.9182ZM67.8393 69.0731C66.6909 69.0731 65.6692 68.8866 64.7744 68.5138C63.8844 68.1359 63.1859 67.6214 62.6788 66.9701C62.1717 66.3188 61.9182 65.5805 61.9182 64.7552C61.9182 64.1189 62.0624 63.5347 62.3507 63.0028C62.644 62.4658 63.0418 62.0209 63.5439 61.6679C64.046 61.3099 64.6078 61.0812 65.2293 60.9818V60.8774C64.4139 60.7133 63.7527 60.3181 63.2456 59.6917C62.7385 59.0603 62.4849 58.327 62.4849 57.4917C62.4849 56.7013 62.7161 55.9978 63.1785 55.3813C63.6408 54.7599 64.2747 54.2726 65.0801 53.9197C65.8905 53.5617 66.8102 53.3827 67.8393 53.3827C68.8685 53.3827 69.7857 53.5617 70.5911 53.9197C71.4015 54.2776 72.0378 54.7673 72.5002 55.3888C72.9626 56.0052 73.1962 56.7062 73.2012 57.4917C73.1962 58.3319 72.9377 59.0653 72.4256 59.6917C71.9136 60.3181 71.2573 60.7133 70.4569 60.8774V60.9818C71.0684 61.0812 71.6227 61.3099 72.1199 61.6679C72.622 62.0209 73.0197 62.4658 73.3131 63.0028C73.6114 63.5347 73.763 64.1189 73.768 64.7552C73.763 65.5805 73.507 66.3188 72.9999 66.9701C72.4927 67.6214 71.7918 68.1359 70.8969 68.5138C70.007 68.8866 68.9878 69.0731 67.8393 69.0731ZM67.8393 66.7016C68.3514 66.7016 68.7989 66.6096 69.1817 66.4257C69.5645 66.2368 69.8628 65.9782 70.0766 65.6501C70.2953 65.317 70.4047 64.9342 70.4047 64.5017C70.4047 64.0592 70.2928 63.6689 70.0691 63.3309C69.8454 62.9878 69.5421 62.7194 69.1593 62.5255C68.7765 62.3266 68.3365 62.2272 67.8393 62.2272C67.3472 62.2272 66.9072 62.3266 66.5194 62.5255C66.1316 62.7194 65.8258 62.9878 65.6021 63.3309C65.3834 63.6689 65.274 64.0592 65.274 64.5017C65.274 64.9342 65.3809 65.317 65.5947 65.6501C65.8084 65.9782 66.1092 66.2368 66.497 66.4257C66.8848 66.6096 67.3322 66.7016 67.8393 66.7016ZM67.8393 59.8781C68.2669 59.8781 68.6472 59.7911 68.9803 59.6171C69.3134 59.4431 69.5744 59.202 69.7633 58.8937C69.9523 58.5855 70.0467 58.23 70.0467 57.8273C70.0467 57.4296 69.9523 57.0816 69.7633 56.7833C69.5744 56.48 69.3159 56.2439 68.9878 56.0748C68.6597 55.9008 68.2768 55.8138 67.8393 55.8138C67.4068 55.8138 67.024 55.9008 66.6909 56.0748C66.3578 56.2439 66.0968 56.48 65.9079 56.7833C65.7239 57.0816 65.632 57.4296 65.632 57.8273C65.632 58.23 65.7264 58.5855 65.9153 58.8937C66.1043 59.202 66.3653 59.4431 66.6984 59.6171C67.0315 59.7911 67.4118 59.8781 67.8393 59.8781ZM84.3854 66.0006V65.1952C84.3854 64.5837 84.5147 64.0219 84.7732 63.5099C85.0367 62.9928 85.417 62.5802 85.9142 62.2719C86.4163 61.9587 87.0278 61.8021 87.7487 61.8021C88.4795 61.8021 89.0935 61.9562 89.5907 62.2645C90.0928 62.5727 90.4706 62.9854 90.7242 63.5024C90.9827 64.0145 91.112 64.5787 91.112 65.1952V66.0006C91.112 66.6121 90.9827 67.1764 90.7242 67.6934C90.4657 68.2055 90.0853 68.6157 89.5832 68.9239C89.0811 69.2371 88.4696 69.3937 87.7487 69.3937C87.0179 69.3937 86.4039 69.2371 85.9067 68.9239C85.4096 68.6157 85.0317 68.2055 84.7732 67.6934C84.5147 67.1764 84.3854 66.6121 84.3854 66.0006ZM86.5555 65.1952V66.0006C86.5555 66.3536 86.64 66.6867 86.8091 66.9999C86.9831 67.3131 87.2963 67.4697 87.7487 67.4697C88.2011 67.4697 88.5093 67.3156 88.6734 67.0074C88.8424 66.6991 88.927 66.3635 88.927 66.0006V65.1952C88.927 64.8323 88.8474 64.4942 88.6883 64.181C88.5292 63.8678 88.216 63.7112 87.7487 63.7112C87.3013 63.7112 86.9905 63.8678 86.8165 64.181C86.6425 64.4942 86.5555 64.8323 86.5555 65.1952ZM76.5477 57.2606V56.4552C76.5477 55.8387 76.6794 55.2744 76.9429 54.7623C77.2064 54.2453 77.5868 53.8327 78.0839 53.5244C78.5861 53.2162 79.1926 53.0621 79.9035 53.0621C80.6393 53.0621 81.2558 53.2162 81.753 53.5244C82.2501 53.8327 82.628 54.2453 82.8865 54.7623C83.145 55.2744 83.2743 55.8387 83.2743 56.4552V57.2606C83.2743 57.877 83.1425 58.4413 82.879 58.9534C82.6205 59.4655 82.2402 59.8756 81.738 60.1839C81.2409 60.4871 80.6294 60.6388 79.9035 60.6388C79.1777 60.6388 78.5637 60.4846 78.0616 60.1764C77.5644 59.8632 77.1866 59.453 76.928 58.9459C76.6745 58.4339 76.5477 57.8721 76.5477 57.2606ZM78.7327 56.4552V57.2606C78.7327 57.6235 78.8172 57.9591 78.9863 58.2673C79.1603 58.5756 79.466 58.7297 79.9035 58.7297C80.3609 58.7297 80.6716 58.5756 80.8357 58.2673C81.0047 57.9591 81.0892 57.6235 81.0892 57.2606V56.4552C81.0892 56.0922 81.0097 55.7542 80.8506 55.441C80.6915 55.1278 80.3758 54.9711 79.9035 54.9711C79.4611 54.9711 79.1553 55.1302 78.9863 55.4484C78.8172 55.7666 78.7327 56.1022 78.7327 56.4552ZM77.5321 68.8643L88.0321 53.5915H89.9859L79.4859 68.8643H77.5321Z" fill="white"/>
<path d="M44.4397 90.1357H43.4653L47.1691 79.9539H48.1634L51.8673 90.1357H50.8929L47.7011 81.162H47.6315L44.4397 90.1357ZM45.1407 86.233H50.1919V87.0683H45.1407V86.233ZM55.9913 90.2948C55.3086 90.2948 54.7136 90.1241 54.2065 89.7828C53.7027 89.4414 53.3116 88.974 53.0332 88.3808C52.7548 87.7875 52.6156 87.1114 52.6156 86.3524C52.6156 85.5867 52.7565 84.9056 53.0382 84.309C53.3232 83.7124 53.7176 83.2451 54.2214 82.907C54.7252 82.5657 55.3102 82.395 55.9764 82.395C56.4868 82.395 56.9492 82.4944 57.3635 82.6933C57.7778 82.8888 58.1192 83.1656 58.3876 83.5235C58.6594 83.8782 58.8301 84.2925 58.8997 84.7664H58.0048C57.912 84.3356 57.6883 83.9677 57.3336 83.6627C56.9823 83.3545 56.5349 83.2004 55.9913 83.2004C55.5041 83.2004 55.0732 83.3329 54.6987 83.5981C54.3242 83.8599 54.0309 84.2262 53.8187 84.6968C53.6099 85.1642 53.5055 85.7061 53.5055 86.3225C53.5055 86.9423 53.6083 87.4909 53.8138 87.9681C54.0193 88.4421 54.3076 88.8133 54.6788 89.0818C55.0533 89.3502 55.4908 89.4845 55.9913 89.4845C56.3294 89.4845 56.6376 89.4215 56.916 89.2955C57.1978 89.1663 57.4331 88.984 57.622 88.7487C57.8142 88.5133 57.9435 88.2333 58.0098 87.9085H58.9047C58.8384 88.3692 58.6743 88.7802 58.4125 89.1414C58.154 89.4994 57.8175 89.7811 57.4032 89.9866C56.9923 90.1921 56.5216 90.2948 55.9913 90.2948ZM65.2336 87.2174V82.4994H66.1185V90.1357H65.2336V88.868H65.164C64.985 89.2591 64.7016 89.5856 64.3139 89.8474C63.9261 90.1059 63.4521 90.2352 62.892 90.2352C62.4048 90.2352 61.9722 90.1291 61.5944 89.917C61.2166 89.7016 60.9199 89.3867 60.7045 88.9724C60.489 88.5581 60.3813 88.0493 60.3813 87.4461V82.4994H61.2663V87.3914C61.2663 87.988 61.4419 88.4686 61.7933 88.8332C62.1446 89.1945 62.5953 89.3751 63.1455 89.3751C63.4902 89.3751 63.8217 89.2922 64.1399 89.1265C64.458 88.9608 64.7199 88.7188 64.9254 88.4007C65.1309 88.0792 65.2336 87.6847 65.2336 87.2174ZM68.0414 90.1357V82.4994H68.9015V83.6727H68.9661C69.1186 83.2882 69.3837 82.9783 69.7616 82.743C70.1427 82.5043 70.5736 82.385 71.0542 82.385C71.1271 82.385 71.2083 82.3867 71.2978 82.39C71.3873 82.3933 71.4619 82.3966 71.5215 82.3999V83.2998C71.4817 83.2932 71.4121 83.2832 71.3127 83.27C71.2133 83.2567 71.1056 83.2501 70.9896 83.2501C70.5918 83.2501 70.2372 83.3346 69.9256 83.5036C69.6174 83.6694 69.3738 83.8997 69.1948 84.1947C69.0158 84.4897 68.9264 84.8261 68.9264 85.2039V90.1357H68.0414ZM74.7445 90.3097C74.2838 90.3097 73.8628 90.2203 73.4817 90.0413C73.1005 89.859 72.7973 89.5972 72.5719 89.2558C72.3465 88.9111 72.2338 88.4935 72.2338 88.0029C72.2338 87.6251 72.3051 87.3069 72.4476 87.0484C72.5901 86.7899 72.7923 86.5777 73.0541 86.412C73.316 86.2463 73.6258 86.1154 73.9838 86.0193C74.3418 85.9231 74.7362 85.8486 75.167 85.7955C75.5946 85.7425 75.9559 85.6961 76.2508 85.6563C76.5491 85.6166 76.7762 85.5536 76.932 85.4674C77.0877 85.3812 77.1656 85.242 77.1656 85.0498V84.8708C77.1656 84.3505 77.0098 83.9411 76.6983 83.6428C76.3901 83.3412 75.9459 83.1904 75.3659 83.1904C74.8157 83.1904 74.3666 83.3114 74.0186 83.5534C73.6739 83.7953 73.432 84.0803 73.2928 84.4085L72.4526 84.1052C72.6249 83.6876 72.8635 83.3545 73.1685 83.1059C73.4734 82.854 73.8148 82.6734 74.1926 82.564C74.5705 82.4513 74.9533 82.395 75.341 82.395C75.6327 82.395 75.936 82.4331 76.2508 82.5093C76.569 82.5856 76.864 82.7181 77.1358 82.907C77.4076 83.0927 77.628 83.3528 77.797 83.6876C77.966 84.019 78.0506 84.44 78.0506 84.9504V90.1357H77.1656V88.9276H77.1109C77.0049 89.153 76.8474 89.3718 76.6386 89.5839C76.4298 89.796 76.168 89.97 75.8531 90.1059C75.5383 90.2418 75.1687 90.3097 74.7445 90.3097ZM74.8638 89.4994C75.3344 89.4994 75.7421 89.395 76.0868 89.1862C76.4315 88.9774 76.6966 88.7006 76.8822 88.3559C77.0712 88.0079 77.1656 87.6251 77.1656 87.2075V86.1038C77.0993 86.1668 76.9883 86.2231 76.8325 86.2728C76.6801 86.3225 76.5027 86.3673 76.3006 86.407C76.1017 86.4435 75.9028 86.475 75.704 86.5015C75.5051 86.528 75.3261 86.5512 75.167 86.5711C74.7362 86.6241 74.3683 86.707 74.0633 86.8197C73.7584 86.9324 73.5248 87.0882 73.3624 87.287C73.2 87.4826 73.1187 87.7345 73.1187 88.0427C73.1187 88.5067 73.2845 88.8663 73.6159 89.1215C73.9473 89.3734 74.3633 89.4994 74.8638 89.4994ZM75.008 81.4404L76.2807 79.1833H77.3297L75.8034 81.4404H75.008ZM82.9676 90.2948C82.2848 90.2948 81.6899 90.1241 81.1828 89.7828C80.679 89.4414 80.2879 88.974 80.0095 88.3808C79.7311 87.7875 79.5919 87.1114 79.5919 86.3524C79.5919 85.5867 79.7327 84.9056 80.0144 84.309C80.2995 83.7124 80.6939 83.2451 81.1977 82.907C81.7015 82.5657 82.2865 82.395 82.9527 82.395C83.4631 82.395 83.9254 82.4944 84.3397 82.6933C84.754 82.8888 85.0954 83.1656 85.3639 83.5235C85.6357 83.8782 85.8063 84.2925 85.876 84.7664H84.9811C84.8883 84.3356 84.6645 83.9677 84.3099 83.6627C83.9586 83.3545 83.5111 83.2004 82.9676 83.2004C82.4804 83.2004 82.0495 83.3329 81.675 83.5981C81.3004 83.8599 81.0071 84.2262 80.795 84.6968C80.5862 85.1642 80.4818 85.7061 80.4818 86.3225C80.4818 86.9423 80.5845 87.4909 80.79 87.9681C80.9955 88.4421 81.2839 88.8133 81.6551 89.0818C82.0296 89.3502 82.4671 89.4845 82.9676 89.4845C83.3056 89.4845 83.6139 89.4215 83.8923 89.2955C84.174 89.1663 84.4093 88.984 84.5983 88.7487C84.7905 88.5133 84.9197 88.2333 84.986 87.9085H85.8809C85.8146 88.3692 85.6506 88.7802 85.3887 89.1414C85.1302 89.4994 84.7938 89.7811 84.3795 89.9866C83.9685 90.1921 83.4979 90.2948 82.9676 90.2948ZM87.3675 90.1357V82.4994H88.2574V90.1357H87.3675ZM87.8199 81.1869C87.6376 81.1869 87.4819 81.1256 87.3526 81.0029C87.2233 80.877 87.1587 80.7262 87.1587 80.5505C87.1587 80.3749 87.2233 80.2257 87.3526 80.1031C87.4819 79.9771 87.6376 79.9142 87.8199 79.9142C88.0022 79.9142 88.158 79.9771 88.2873 80.1031C88.4165 80.2257 88.4812 80.3749 88.4812 80.5505C88.4812 80.7262 88.4165 80.877 88.2873 81.0029C88.158 81.1256 88.0022 81.1869 87.8199 81.1869ZM92.3106 90.3097C91.8499 90.3097 91.429 90.2203 91.0478 90.0413C90.6667 89.859 90.3634 89.5972 90.138 89.2558C89.9127 88.9111 89.8 88.4935 89.8 88.0029C89.8 87.6251 89.8712 87.3069 90.0138 87.0484C90.1563 86.7899 90.3584 86.5777 90.6203 86.412C90.8821 86.2463 91.192 86.1154 91.55 86.0193C91.9079 85.9231 92.3023 85.8486 92.7332 85.7955C93.1608 85.7425 93.522 85.6961 93.817 85.6563C94.1153 85.6166 94.3424 85.5536 94.4981 85.4674C94.6539 85.3812 94.7318 85.242 94.7318 85.0498V84.8708C94.7318 84.3505 94.576 83.9411 94.2645 83.6428C93.9562 83.3412 93.5121 83.1904 92.9321 83.1904C92.3819 83.1904 91.9328 83.3114 91.5848 83.5534C91.2401 83.7953 90.9981 84.0803 90.8589 84.4085L90.0187 84.1052C90.1911 83.6876 90.4297 83.3545 90.7346 83.1059C91.0396 82.854 91.3809 82.6734 91.7588 82.564C92.1366 82.4513 92.5194 82.395 92.9072 82.395C93.1989 82.395 93.5022 82.4331 93.817 82.5093C94.1352 82.5856 94.4302 82.7181 94.702 82.907C94.9737 83.0927 95.1942 83.3528 95.3632 83.6876C95.5322 84.019 95.6167 84.44 95.6167 84.9504V90.1357H94.7318V88.9276H94.6771C94.571 89.153 94.4136 89.3718 94.2048 89.5839C93.996 89.796 93.7342 89.97 93.4193 90.1059C93.1044 90.2418 92.7349 90.3097 92.3106 90.3097ZM92.4299 89.4994C92.9006 89.4994 93.3083 89.395 93.653 89.1862C93.9977 88.9774 94.2628 88.7006 94.4484 88.3559C94.6373 88.0079 94.7318 87.6251 94.7318 87.2075V86.1038C94.6655 86.1668 94.5545 86.2231 94.3987 86.2728C94.2462 86.3225 94.0689 86.3673 93.8667 86.407C93.6679 86.4435 93.469 86.475 93.2701 86.5015C93.0713 86.528 92.8923 86.5512 92.7332 86.5711C92.3023 86.6241 91.9344 86.707 91.6295 86.8197C91.3246 86.9324 91.0909 87.0882 90.9285 87.287C90.7661 87.4826 90.6849 87.7345 90.6849 88.0427C90.6849 88.5067 90.8506 88.8663 91.1821 89.1215C91.5135 89.3734 91.9295 89.4994 92.4299 89.4994Z" fill="white" fill-opacity="0.9"/>
<defs>
<linearGradient id="paint0_linear_154_680" x1="17.875" y1="76.7552" x2="149.891" y2="169.104" gradientUnits="userSpaceOnUse">
<stop stop-color="#00CD2D"/>
<stop offset="1" stop-color="#5060FF"/>
</linearGradient>
</defs>
</svg>
