<svg width="32" height="32" viewBox="0 0 32 32" fill="none" xmlns="http://www.w3.org/2000/svg">
<path fill-rule="evenodd" clip-rule="evenodd" d="M13.5996 3.03635C13.7264 3.07133 13.845 3.13098 13.9487 3.21186C14.0524 3.29274 14.1391 3.39328 14.2038 3.50772C14.2686 3.62215 14.3102 3.74824 14.3262 3.87876C14.3421 4.00928 14.3322 4.14167 14.297 4.26835L7.6303 28.2683C7.55657 28.5208 7.38636 28.734 7.15653 28.8619C6.9267 28.9897 6.65576 29.0219 6.40239 28.9514C6.14902 28.8809 5.93362 28.7134 5.80283 28.4853C5.67205 28.2571 5.63641 27.9866 5.70364 27.7323L12.3703 3.73235C12.4413 3.47689 12.6108 3.26008 12.8415 3.12956C13.0723 2.99905 13.3455 2.96552 13.601 3.03635M25.5996 3.03635C25.7264 3.07133 25.845 3.13098 25.9487 3.21186C26.0524 3.29274 26.1391 3.39328 26.2038 3.50772C26.2686 3.62215 26.3102 3.74824 26.3262 3.87876C26.3421 4.00928 26.3322 4.14167 26.297 4.26835L19.6303 28.2683C19.5965 28.3964 19.5375 28.5164 19.4569 28.6214C19.3763 28.7265 19.2757 28.8145 19.1608 28.8803C19.046 28.9461 18.9192 28.9885 18.7878 29.005C18.6564 29.0214 18.5231 29.0116 18.3955 28.9761C18.268 28.9406 18.1487 28.8802 18.0447 28.7982C17.9407 28.7163 17.854 28.6145 17.7896 28.4988C17.7253 28.3831 17.6845 28.2558 17.6698 28.1242C17.655 27.9926 17.6665 27.8594 17.7036 27.7323L24.3703 3.73235C24.4413 3.47689 24.6108 3.26008 24.8415 3.12956C25.0723 2.99905 25.3441 2.96552 25.5996 3.03635Z" fill="white"/>
<path opacity="0.5" fill-rule="evenodd" clip-rule="evenodd" d="M4.33317 12C4.33317 11.7348 4.43853 11.4804 4.62606 11.2929C4.8136 11.1054 5.06795 11 5.33317 11H29.3332C29.5984 11 29.8527 11.1054 30.0403 11.2929C30.2278 11.4804 30.3332 11.7348 30.3332 12C30.3332 12.2652 30.2278 12.5196 30.0403 12.7071C29.8527 12.8946 29.5984 13 29.3332 13H5.33317C5.06795 13 4.8136 12.8946 4.62606 12.7071C4.43853 12.5196 4.33317 12.2652 4.33317 12ZM1.6665 21.3333C1.6665 21.0681 1.77186 20.8138 1.9594 20.6262C2.14693 20.4387 2.40129 20.3333 2.6665 20.3333H26.6665C26.9317 20.3333 27.1861 20.4387 27.3736 20.6262C27.5611 20.8138 27.6665 21.0681 27.6665 21.3333C27.6665 21.5985 27.5611 21.8529 27.3736 22.0404C27.1861 22.228 26.9317 22.3333 26.6665 22.3333H2.6665C2.40129 22.3333 2.14693 22.228 1.9594 22.0404C1.77186 21.8529 1.6665 21.5985 1.6665 21.3333Z" fill="white"/>
</svg>
