<svg width="24" height="24" viewBox="0 0 24 24" fill="none" xmlns="http://www.w3.org/2000/svg">
<path fill-rule="evenodd" clip-rule="evenodd" d="M10.723 3.20015C10.776 3.0084 10.7507 2.80343 10.6527 2.63034C10.5546 2.45724 10.3918 2.3302 10.2 2.27715C10.0082 2.22411 9.80328 2.24941 9.63018 2.34749C9.45709 2.44558 9.33004 2.6084 9.277 2.80015L7.763 8.25015H4C3.80109 8.25015 3.61032 8.32917 3.46967 8.46982C3.32902 8.61048 3.25 8.80124 3.25 9.00015C3.25 9.19907 3.32902 9.38983 3.46967 9.53048C3.61032 9.67114 3.80109 9.75015 4 9.75015H7.347L5.819 15.2502H2C1.80109 15.2502 1.61032 15.3292 1.46967 15.4698C1.32902 15.6105 1.25 15.8012 1.25 16.0002C1.25 16.1991 1.32902 16.3898 1.46967 16.5305C1.61032 16.6711 1.80109 16.7502 2 16.7502H5.402L4.277 20.8002C4.22396 20.9919 4.24926 21.1969 4.34734 21.37C4.44542 21.5431 4.60825 21.6701 4.8 21.7232C4.99175 21.7762 5.19672 21.7509 5.36982 21.6528C5.54291 21.5547 5.66996 21.3919 5.723 21.2002L6.959 16.7502H14.402L13.277 20.8002C13.224 20.9919 13.2493 21.1969 13.3473 21.37C13.4454 21.5431 13.6082 21.6701 13.8 21.7232C13.9918 21.7762 14.1967 21.7509 14.3698 21.6528C14.5429 21.5547 14.67 21.3919 14.723 21.2002L15.959 16.7502H20C20.1989 16.7502 20.3897 16.6711 20.5303 16.5305C20.671 16.3898 20.75 16.1991 20.75 16.0002C20.75 15.8012 20.671 15.6105 20.5303 15.4698C20.3897 15.3292 20.1989 15.2502 20 15.2502H16.376L17.903 9.75015H22C22.1989 9.75015 22.3897 9.67114 22.5303 9.53048C22.671 9.38983 22.75 9.19907 22.75 9.00015C22.75 8.80124 22.671 8.61048 22.5303 8.46982C22.3897 8.32917 22.1989 8.25015 22 8.25015H18.32L19.723 3.20015C19.7493 3.10521 19.7566 3.00602 19.7445 2.90825C19.7324 2.81048 19.7012 2.71605 19.6527 2.63034C19.6041 2.54463 19.5391 2.46933 19.4615 2.40873C19.3838 2.34813 19.2949 2.30342 19.2 2.27715C19.1051 2.25089 19.0059 2.24358 18.9081 2.25565C18.8103 2.26772 18.7159 2.29893 18.6302 2.34749C18.5445 2.39606 18.4692 2.46103 18.4086 2.5387C18.348 2.61637 18.3033 2.70521 18.277 2.80015L16.763 8.25015H9.32L10.723 3.20015ZM14.819 15.2502L16.347 9.75015H8.903L7.376 15.2502H14.819Z" fill="white"/>
</svg>
