<svg width="64" height="62" viewBox="0 0 64 62" fill="none" xmlns="http://www.w3.org/2000/svg">
<rect x="0.604492" y="0.604492" width="62.7917" height="60.7917" rx="5" fill="black" fill-opacity="0.35"/>
<path fill-rule="evenodd" clip-rule="evenodd" d="M29.8087 8.60449H34.192C36.0649 8.60449 37.6253 8.60449 38.8628 8.77116C40.1712 8.94616 41.3524 9.33366 42.3003 10.2816C43.2503 11.2316 43.6378 12.4128 43.8128 13.7191C43.8614 14.0732 43.8962 14.4517 43.917 14.8545C45.1462 14.8545 46.1837 14.8628 47.0399 14.9503C48.0253 15.0503 48.942 15.2691 49.767 15.8191C50.392 16.2378 50.9295 16.7753 51.3482 17.4024C51.8982 18.2253 52.117 19.142 52.217 20.1274C52.3128 21.0691 52.3128 22.2337 52.3128 23.6274V50.2712H52.8337C53.2481 50.2712 53.6455 50.4358 53.9385 50.7288C54.2315 51.0218 54.3962 51.4193 54.3962 51.8337C54.3962 52.2481 54.2315 52.6455 53.9385 52.9385C53.6455 53.2315 53.2481 53.3962 52.8337 53.3962H11.167C10.7526 53.3962 10.3552 53.2315 10.0621 52.9385C9.76911 52.6455 9.60449 52.2481 9.60449 51.8337C9.60449 51.4193 9.76911 51.0218 10.0621 50.7288C10.3552 50.4358 10.7526 50.2712 11.167 50.2712H11.6878V23.6295C11.6878 22.2337 11.6878 21.0691 11.7837 20.1274C11.8837 19.142 12.1024 18.2253 12.6524 17.4003C13.0712 16.7753 13.6087 16.2378 14.2357 15.8191C15.0587 15.2691 15.9753 15.0503 16.9607 14.9503C17.8149 14.8628 18.8545 14.8545 20.0816 14.8545C20.1052 14.4517 20.1399 14.0739 20.1857 13.7212C20.3628 12.4128 20.7503 11.2316 21.6982 10.2837C22.6482 9.33366 23.8295 8.94616 25.1357 8.77116C26.3753 8.60449 27.9378 8.60449 29.8087 8.60449ZM20.0212 17.9795C18.8066 17.9795 17.9503 17.9899 17.2774 18.0587C16.5378 18.1337 16.1962 18.267 15.9712 18.4191C15.6884 18.6111 15.4445 18.855 15.2524 19.1378C15.1003 19.3628 14.967 19.7045 14.892 20.4441C14.8149 21.2087 14.8128 22.2149 14.8128 23.7087V50.2712H20.0212V36.7295H18.4587C18.0443 36.7295 17.6468 36.5649 17.3538 36.2718C17.0608 35.9788 16.8962 35.5814 16.8962 35.167C16.8962 34.7526 17.0608 34.3552 17.3538 34.0621C17.6468 33.7691 18.0443 33.6045 18.4587 33.6045H20.0212V30.4795H18.4587C18.0443 30.4795 17.6468 30.3149 17.3538 30.0218C17.0608 29.7288 16.8962 29.3314 16.8962 28.917C16.8962 28.5026 17.0608 28.1052 17.3538 27.8121C17.6468 27.5191 18.0443 27.3545 18.4587 27.3545H20.0212V24.2295H18.4587C18.0443 24.2295 17.6468 24.0649 17.3538 23.7718C17.0608 23.4788 16.8962 23.0814 16.8962 22.667C16.8962 22.2526 17.0608 21.8552 17.3538 21.5621C17.6468 21.2691 18.0443 21.1045 18.4587 21.1045H20.0212V17.9795ZM23.1462 50.2712H30.4378V45.5837C30.4378 45.1693 30.6024 44.7718 30.8955 44.4788C31.1885 44.1858 31.5859 44.0212 32.0003 44.0212C32.4147 44.0212 32.8122 44.1858 33.1052 44.4788C33.3982 44.7718 33.5628 45.1693 33.5628 45.5837V50.2712H40.8545V18.5003C40.8545 16.492 40.8503 15.142 40.7149 14.1357C40.5857 13.1753 40.3628 12.7628 40.0899 12.492C39.817 12.2212 39.4087 11.9982 38.4482 11.867C37.442 11.7337 36.092 11.7295 34.0837 11.7295H29.917C27.9087 11.7295 26.5587 11.7337 25.5524 11.8691C24.592 11.9982 24.1795 12.2212 23.9087 12.4941C23.6378 12.767 23.4149 13.1753 23.2837 14.1357C23.1524 15.142 23.1462 16.492 23.1462 18.5003V50.2712ZM43.9795 24.2295H45.542C45.9564 24.2295 46.3538 24.0649 46.6468 23.7718C46.9399 23.4788 47.1045 23.0814 47.1045 22.667C47.1045 22.2526 46.9399 21.8552 46.6468 21.5621C46.3538 21.2691 45.9564 21.1045 45.542 21.1045H43.9795V17.9795C45.1941 17.9795 46.0503 17.9899 46.7232 18.0587C47.4628 18.1337 47.8045 18.267 48.0316 18.4191C48.3149 18.6066 48.5587 18.8524 48.7482 19.1378C48.9003 19.3628 49.0337 19.7045 49.1087 20.4441C49.1857 21.2087 49.1878 22.2149 49.1878 23.7087V50.2712H43.9795V36.7295H45.542C45.9564 36.7295 46.3538 36.5649 46.6468 36.2718C46.9399 35.9788 47.1045 35.5814 47.1045 35.167C47.1045 34.7526 46.9399 34.3552 46.6468 34.0621C46.3538 33.7691 45.9564 33.6045 45.542 33.6045H43.9795V30.4795H45.542C45.9564 30.4795 46.3538 30.3149 46.6468 30.0218C46.9399 29.7288 47.1045 29.3314 47.1045 28.917C47.1045 28.5026 46.9399 28.1052 46.6468 27.8121C46.3538 27.5191 45.9564 27.3545 45.542 27.3545H43.9795V24.2295ZM26.2712 31.0003C26.2712 30.5859 26.4358 30.1885 26.7288 29.8955C27.0218 29.6024 27.4193 29.4378 27.8337 29.4378H36.167C36.5814 29.4378 36.9788 29.6024 37.2718 29.8955C37.5649 30.1885 37.7295 30.5859 37.7295 31.0003C37.7295 31.4147 37.5649 31.8122 37.2718 32.1052C36.9788 32.3982 36.5814 32.5628 36.167 32.5628H27.8337C27.4193 32.5628 27.0218 32.3982 26.7288 32.1052C26.4358 31.8122 26.2712 31.4147 26.2712 31.0003ZM26.2712 37.2503C26.2712 36.8359 26.4358 36.4385 26.7288 36.1455C27.0218 35.8524 27.4193 35.6878 27.8337 35.6878H36.167C36.5814 35.6878 36.9788 35.8524 37.2718 36.1455C37.5649 36.4385 37.7295 36.8359 37.7295 37.2503C37.7295 37.6647 37.5649 38.0622 37.2718 38.3552C36.9788 38.6482 36.5814 38.8128 36.167 38.8128H27.8337C27.4193 38.8128 27.0218 38.6482 26.7288 38.3552C26.4358 38.0622 26.2712 37.6647 26.2712 37.2503Z" fill="white" fill-opacity="0.6"/>
<path d="M32.834 15.4576C32.541 15.1646 32.1436 15 31.7292 15C31.3148 15 30.9173 15.1646 30.6243 15.4576C30.3313 15.7507 30.1667 16.1481 30.1667 16.5625V19.1667H27.5625C27.1481 19.1667 26.7507 19.3313 26.4576 19.6243C26.1646 19.9173 26 20.3148 26 20.7292C26 21.1436 26.1646 21.541 26.4576 21.834C26.7507 22.127 27.1481 22.2917 27.5625 22.2917H30.1667V24.8958C30.1667 25.3102 30.3313 25.7077 30.6243 26.0007C30.9173 26.2937 31.3148 26.4583 31.7292 26.4583C32.1436 26.4583 32.541 26.2937 32.834 26.0007C33.127 25.7077 33.2917 25.3102 33.2917 24.8958V22.2917H35.8958C36.3102 22.2917 36.7077 22.127 37.0007 21.834C37.2937 21.541 37.4583 21.1436 37.4583 20.7292C37.4583 20.3148 37.2937 19.9173 37.0007 19.6243C36.7077 19.3313 36.3102 19.1667 35.8958 19.1667H33.2917V16.5625C33.2917 16.1481 33.127 15.7507 32.834 15.4576Z" fill="white"/>
</svg>
