<svg width="34" height="34" viewBox="0 0 34 34" fill="none" xmlns="http://www.w3.org/2000/svg">
<g opacity="1">
<path d="M9.91667 24.0833V14.1667M29.75 11.3333V22.6667C29.75 24.5453 29.0037 26.347 27.6753 27.6753C26.347 29.0037 24.5453 29.75 22.6667 29.75H11.3333C9.45472 29.75 7.65304 29.0037 6.32466 27.6753C4.99628 26.347 4.25 24.5453 4.25 22.6667V11.3333C4.25 9.45472 4.99628 7.65304 6.32466 6.32466C7.65304 4.99628 9.45472 4.25 11.3333 4.25H22.6667C24.5453 4.25 26.347 4.99628 27.6753 6.32466C29.0037 7.65304 29.75 9.45472 29.75 11.3333Z" stroke="white" stroke-width="1.5" stroke-linecap="round" stroke-linejoin="round"/>
<path d="M15.5832 24.0831V19.479M15.5832 19.479V14.1665M15.5832 19.479C15.5832 14.1665 24.0832 14.1665 24.0832 19.479V24.0831M9.9165 9.93062L9.93067 9.91504" stroke="white" stroke-width="1.5" stroke-linecap="round" stroke-linejoin="round"/>
</g>
</svg>
