<svg width="35" height="35" viewBox="0 0 35 35" fill="none" xmlns="http://www.w3.org/2000/svg">
<g opacity="0.6">
<path d="M17.4998 23.3337C19.0469 23.3337 20.5307 22.7191 21.6246 21.6251C22.7186 20.5312 23.3332 19.0474 23.3332 17.5003C23.3332 15.9532 22.7186 14.4695 21.6246 13.3755C20.5307 12.2816 19.0469 11.667 17.4998 11.667C15.9527 11.667 14.469 12.2816 13.375 13.3755C12.2811 14.4695 11.6665 15.9532 11.6665 17.5003C11.6665 19.0474 12.2811 20.5312 13.375 21.6251C14.469 22.7191 15.9527 23.3337 17.4998 23.3337Z" stroke="white" stroke-width="1.5" stroke-linecap="round" stroke-linejoin="round"/>
<path d="M4.375 23.3333V11.6667C4.375 9.7328 5.14323 7.87813 6.51068 6.51068C7.87813 5.14323 9.7328 4.375 11.6667 4.375H23.3333C25.2672 4.375 27.1219 5.14323 28.4893 6.51068C29.8568 7.87813 30.625 9.7328 30.625 11.6667V23.3333C30.625 25.2672 29.8568 27.1219 28.4893 28.4893C27.1219 29.8568 25.2672 30.625 23.3333 30.625H11.6667C9.7328 30.625 7.87813 29.8568 6.51068 28.4893C5.14323 27.1219 4.375 25.2672 4.375 23.3333Z" stroke="white" stroke-width="1.5"/>
<path d="M25.521 9.49358L25.5356 9.47754" stroke="white" stroke-width="1.5" stroke-linecap="round" stroke-linejoin="round"/>
</g>
</svg>
