<svg width="35" height="35" viewBox="0 0 35 35" fill="none" xmlns="http://www.w3.org/2000/svg">
<g opacity="1">
<path d="M30.625 11.6667V23.3333C30.625 25.2672 29.8568 27.1219 28.4893 28.4893C27.1219 29.8568 25.2672 30.625 23.3333 30.625H11.6667C9.7328 30.625 7.87813 29.8568 6.51068 28.4893C5.14323 27.1219 4.375 25.2672 4.375 23.3333V11.6667C4.375 9.7328 5.14323 7.87813 6.51068 6.51068C7.87813 5.14323 9.7328 4.375 11.6667 4.375H23.3333C25.2672 4.375 27.1219 5.14323 28.4893 6.51068C29.8568 7.87813 30.625 9.7328 30.625 11.6667Z" stroke="white" stroke-width="1.5" stroke-linecap="round" stroke-linejoin="round"/>
<path d="M16.0417 30.6253V17.5003C16.0417 14.311 16.7708 11.667 21.875 11.667M13.125 18.9587H21.875" stroke="white" stroke-width="1.5" stroke-linecap="round" stroke-linejoin="round"/>
</g>
</svg>
