<svg width="32" height="32" viewBox="0 0 32 32" fill="none" xmlns="http://www.w3.org/2000/svg">
<path d="M13.3333 13.3337C16.2789 13.3337 18.6667 10.9458 18.6667 8.00033C18.6667 5.05481 16.2789 2.66699 13.3333 2.66699C10.3878 2.66699 8 5.05481 8 8.00033C8 10.9458 10.3878 13.3337 13.3333 13.3337Z" stroke="white" stroke-width="1.25"/>
<path opacity="0.5" d="M13.3333 28.0007C18.488 28.0007 22.6667 25.6128 22.6667 22.6673C22.6667 19.7218 18.488 17.334 13.3333 17.334C8.17868 17.334 4 19.7218 4 22.6673C4 25.6128 8.17868 28.0007 13.3333 28.0007Z" stroke="white" stroke-width="1.25"/>
<path d="M25.3332 2.66699C25.3332 2.66699 27.9998 4.26699 27.9998 8.00033C27.9998 11.7337 25.3332 13.3337 25.3332 13.3337M22.6665 5.33366C22.6665 5.33366 23.9998 6.13366 23.9998 8.00033C23.9998 9.86699 22.6665 10.667 22.6665 10.667" stroke="white" stroke-width="1.25" stroke-linecap="round"/>
</svg>
