<svg width="48" height="48" viewBox="0 0 48 48" fill="none" xmlns="http://www.w3.org/2000/svg">
<path d="M20 39.5C20.3978 39.5 20.7794 39.342 21.0607 39.0607C21.342 38.7794 21.5 38.3978 21.5 38C21.5 37.6022 21.342 37.2206 21.0607 36.9393C20.7794 36.658 20.3978 36.5 20 36.5V39.5ZM30 8.5C29.6022 8.5 29.2206 8.65804 28.9393 8.93934C28.658 9.22064 28.5 9.60218 28.5 10C28.5 10.3978 28.658 10.7794 28.9393 11.0607C29.2206 11.342 29.6022 11.5 30 11.5V8.5ZM15 25.5H33V22.5H15V25.5ZM41.5 17C41.5 14.7457 40.6045 12.5837 39.0104 10.9896C37.4163 9.39553 35.2543 8.5 33 8.5V11.5C34.4587 11.5 35.8576 12.0795 36.8891 13.1109C37.9205 14.1424 38.5 15.5413 38.5 17H41.5ZM33 25.5C35.2543 25.5 37.4163 24.6045 39.0104 23.0104C40.6045 21.4163 41.5 19.2543 41.5 17H38.5C38.5 18.4587 37.9205 19.8576 36.8891 20.8891C35.8576 21.9205 34.4587 22.5 33 22.5V25.5ZM9.5 31C9.5 29.5413 10.0795 28.1424 11.1109 27.1109C12.1424 26.0795 13.5413 25.5 15 25.5V22.5C12.7457 22.5 10.5837 23.3955 8.98959 24.9896C7.39553 26.5837 6.5 28.7457 6.5 31H9.5ZM15 36.5C13.5413 36.5 12.1424 35.9205 11.1109 34.8891C10.0795 33.8576 9.5 32.4587 9.5 31H6.5C6.5 32.1162 6.71986 33.2215 7.14702 34.2528C7.57419 35.2841 8.20029 36.2211 8.98959 37.0104C10.5837 38.6045 12.7457 39.5 15 39.5V36.5ZM20 36.5H15V39.5H20V36.5ZM33 8.5H30V11.5H33V8.5Z" fill="white"/>
<path d="M14.9393 8.93934C15.2206 8.65804 15.6022 8.5 16 8.5H22C22.3978 8.5 22.7794 8.65804 23.0607 8.93934C23.342 9.22064 23.5 9.60218 23.5 10C23.5 10.3978 23.342 10.7794 23.0607 11.0607C22.7794 11.342 22.3978 11.5 22 11.5H16C15.6022 11.5 15.2206 11.342 14.9393 11.0607C14.658 10.7794 14.5 10.3978 14.5 10C14.5 9.60218 14.658 9.22064 14.9393 8.93934Z" fill="white"/>
<g opacity="0.6">
<path d="M12 14C14.2091 14 16 12.2091 16 10C16 7.79086 14.2091 6 12 6C9.79086 6 8 7.79086 8 10C8 12.2091 9.79086 14 12 14Z" stroke="white" stroke-width="3"/>
<path d="M41.4987 38.0003C41.4987 38.3978 41.3409 38.7791 41.06 39.0603L37.06 43.0603C36.9227 43.2077 36.7571 43.3259 36.5731 43.4079C36.3891 43.4899 36.1904 43.5339 35.989 43.5375C35.7876 43.541 35.5876 43.504 35.4008 43.4286C35.214 43.3531 35.0444 43.2408 34.9019 43.0984C34.7595 42.9559 34.6472 42.7863 34.5718 42.5995C34.4963 42.4127 34.4593 42.2127 34.4628 42.0113C34.4664 41.8099 34.5105 41.6112 34.5924 41.4272C34.6744 41.2432 34.7926 41.0776 34.94 40.9403L36.38 39.5003H27.5C27.1022 39.5003 26.7206 39.3423 26.4393 39.061C26.158 38.7797 26 38.3981 26 38.0003C26 37.6025 26.158 37.2209 26.4393 36.9396C26.7206 36.6583 27.1022 36.5003 27.5 36.5003H36.38L34.94 35.0603C34.7926 34.923 34.6744 34.7574 34.5924 34.5734C34.5105 34.3894 34.4664 34.1908 34.4628 33.9894C34.4593 33.7879 34.4963 33.5879 34.5718 33.4011C34.6472 33.2143 34.7595 33.0447 34.9019 32.9022C35.0444 32.7598 35.214 32.6475 35.4008 32.5721C35.5876 32.4966 35.7876 32.4596 35.989 32.4631C36.1904 32.4667 36.3891 32.5108 36.5731 32.5927C36.7571 32.6747 36.9227 32.7929 37.06 32.9403L41.06 36.9403C41.3409 37.2216 41.4987 37.6028 41.4987 38.0003Z" fill="white"/>
</g>
</svg>
