<svg width="48" height="48" viewBox="0 0 48 48" fill="none" xmlns="http://www.w3.org/2000/svg">
<path opacity="0.6" fill-rule="evenodd" clip-rule="evenodd" d="M19.1688 9H28.8312C30.9929 9 32.7372 9 34.1083 9.18C35.5315 9.36462 36.7302 9.76462 37.6822 10.6892C38.6342 11.6154 39.0422 12.7815 39.2352 14.1662C39.4186 15.5 39.4186 17.1969 39.4186 19.3V27.1569C39.4186 28.54 39.4186 29.6923 39.2921 30.6062C39.1593 31.5723 38.8651 32.4446 38.144 33.1446C37.4245 33.8462 36.5278 34.1323 35.5347 34.2615C34.5954 34.3846 33.4109 34.3846 31.9892 34.3846H16.0108C14.5907 34.3846 13.4047 34.3846 12.4653 34.2615C11.4722 34.1323 10.5755 33.8462 9.856 33.1446C9.13488 32.4446 8.84074 31.5723 8.70791 30.6062C8.5814 29.6923 8.5814 28.5385 8.5814 27.1569V19.3C8.5814 17.1969 8.5814 15.5 8.76642 14.1662C8.95619 12.7815 9.36735 11.6154 10.3178 10.6892C11.2698 9.76308 12.4685 9.36615 13.8917 9.18C15.2628 9 17.0071 9 19.1688 9ZM14.208 11.4662C13.0473 11.6185 12.4337 11.8969 11.9956 12.3215C11.5576 12.7477 11.2729 13.3446 11.1164 14.4754C10.9567 15.6338 10.9535 17.1754 10.9535 19.3846V27.0769C10.9535 28.56 10.9567 29.5569 11.0594 30.3C11.1575 31.0092 11.3267 31.3138 11.5339 31.5138C11.741 31.7138 12.051 31.8785 12.78 31.9754C13.5438 32.0738 14.5686 32.0769 16.093 32.0769H31.907C33.4314 32.0769 34.4562 32.0738 35.22 31.9738C35.949 31.8785 36.2621 31.7138 36.4677 31.5123C36.6733 31.3108 36.8425 31.0092 36.9421 30.3C37.0434 29.5569 37.0465 28.56 37.0465 27.0769V19.3846C37.0465 17.1769 37.0433 15.6354 36.8836 14.4738C36.7271 13.3446 36.4408 12.7477 36.0044 12.3215C35.5663 11.8954 34.9527 11.6185 33.7904 11.4662C32.5965 11.3108 31.0135 11.3077 28.7442 11.3077H19.2558C16.9865 11.3077 15.402 11.3108 14.208 11.4662ZM7 37.8462C7 37.5401 7.12496 37.2466 7.34739 37.0303C7.56981 36.8139 7.87149 36.6923 8.18605 36.6923H39.814C40.1285 36.6923 40.4302 36.8139 40.6526 37.0303C40.875 37.2466 41 37.5401 41 37.8462C41 38.1522 40.875 38.4457 40.6526 38.662C40.4302 38.8784 40.1285 39 39.814 39H8.18605C7.87149 39 7.56981 38.8784 7.34739 38.662C7.12496 38.4457 7 38.1522 7 37.8462Z" fill="white"/>
<path d="M12 22.0337H15.6C16.3606 22.0337 16.7409 22.0337 17.0805 22.166C17.4201 22.2983 17.6823 22.5486 18.2069 23.0491L19.5768 24.3565C20.0377 24.7963 20.2681 25.0162 20.5488 24.9991C20.8295 24.9819 21.0255 24.736 21.4176 24.2442L25.7738 18.7793C26.1813 18.2681 26.385 18.0125 26.6738 18.0004C26.9625 17.9884 27.1912 18.2259 27.6486 18.701L29.7814 20.9164C30.3109 21.4663 30.5756 21.7413 30.9301 21.8875C31.2846 22.0337 31.6867 22.0337 32.4907 22.0337H36" stroke="white" stroke-width="2.5" stroke-linecap="round"/>
</svg>
