<svg width="36" height="36" viewBox="0 0 36 36" fill="none" xmlns="http://www.w3.org/2000/svg">
<path opacity="0.5" d="M7.5 12.7725C7.5 7.3755 12.201 3 18 3C23.799 3 28.5 7.3755 28.5 12.7725C28.5 18.1275 25.149 24.375 19.92 26.61C19.3126 26.8674 18.6597 27.0001 18 27.0001C17.3403 27.0001 16.6874 26.8674 16.08 26.61C10.851 24.375 7.5 18.126 7.5 12.7725Z" stroke="white" stroke-width="1.5"/>
<path d="M21 13.5C21 14.2956 20.6839 15.0587 20.1213 15.6213C19.5587 16.1839 18.7956 16.5 18 16.5C17.2044 16.5 16.4413 16.1839 15.8787 15.6213C15.3161 15.0587 15 14.2956 15 13.5C15 12.7044 15.3161 11.9413 15.8787 11.3787C16.4413 10.8161 17.2044 10.5 18 10.5C18.7956 10.5 19.5587 10.8161 20.1213 11.3787C20.6839 11.9413 21 12.7044 21 13.5Z" stroke="white" stroke-width="1.5"/>
<path d="M31.44 23.25C32.439 24.153 33 25.173 33 26.25C33 29.9775 26.2845 33 18 33C9.7155 33 3 29.9775 3 26.25C3 25.173 3.561 24.153 4.56 23.25" stroke="white" stroke-width="1.5" stroke-linecap="round"/>
</svg>
