<svg width="32" height="32" viewBox="0 0 32 32" fill="none" xmlns="http://www.w3.org/2000/svg">
<path d="M2.66675 21.334C2.66675 17.5633 2.66675 15.6767 3.83875 14.506C5.00941 13.334 6.89608 13.334 10.6667 13.334H21.3334C25.1041 13.334 26.9907 13.334 28.1614 14.506C29.3334 15.6767 29.3334 17.5633 29.3334 21.334C29.3334 25.1047 29.3334 26.9913 28.1614 28.162C26.9907 29.334 25.1041 29.334 21.3334 29.334H10.6667C6.89608 29.334 5.00941 29.334 3.83875 28.162C2.66675 26.9913 2.66675 25.1047 2.66675 21.334Z" stroke="white" stroke-width="2"/>
<path opacity="0.5" d="M8 13.3337V10.667C8 8.54526 8.84286 6.51043 10.3431 5.01014C11.8434 3.50985 13.8783 2.66699 16 2.66699C18.1217 2.66699 20.1566 3.50985 21.6569 5.01014C23.1571 6.51043 24 8.54526 24 10.667V13.3337" stroke="white" stroke-width="2" stroke-linecap="round"/>
<path opacity="0.5" d="M12.0002 21.3333C12.0002 21.687 11.8597 22.0261 11.6096 22.2761C11.3596 22.5262 11.0205 22.6667 10.6668 22.6667C10.3132 22.6667 9.97407 22.5262 9.72402 22.2761C9.47397 22.0261 9.3335 21.687 9.3335 21.3333C9.3335 20.9797 9.47397 20.6406 9.72402 20.3905C9.97407 20.1405 10.3132 20 10.6668 20C11.0205 20 11.3596 20.1405 11.6096 20.3905C11.8597 20.6406 12.0002 20.9797 12.0002 21.3333ZM17.3335 21.3333C17.3335 21.687 17.193 22.0261 16.943 22.2761C16.6929 22.5262 16.3538 22.6667 16.0002 22.6667C15.6465 22.6667 15.3074 22.5262 15.0574 22.2761C14.8073 22.0261 14.6668 21.687 14.6668 21.3333C14.6668 20.9797 14.8073 20.6406 15.0574 20.3905C15.3074 20.1405 15.6465 20 16.0002 20C16.3538 20 16.6929 20.1405 16.943 20.3905C17.193 20.6406 17.3335 20.9797 17.3335 21.3333ZM22.6668 21.3333C22.6668 21.687 22.5264 22.0261 22.2763 22.2761C22.0263 22.5262 21.6871 22.6667 21.3335 22.6667C20.9799 22.6667 20.6407 22.5262 20.3907 22.2761C20.1406 22.0261 20.0002 21.687 20.0002 21.3333C20.0002 20.9797 20.1406 20.6406 20.3907 20.3905C20.6407 20.1405 20.9799 20 21.3335 20C21.6871 20 22.0263 20.1405 22.2763 20.3905C22.5264 20.6406 22.6668 20.9797 22.6668 21.3333Z" fill="white"/>
</svg>
