<svg width="32" height="32" viewBox="0 0 32 32" fill="none" xmlns="http://www.w3.org/2000/svg">
<path opacity="0.5" d="M8.38117 25.3333C5.22517 25.3333 2.6665 22.8053 2.6665 19.6867C2.6665 16.568 5.22517 14.0387 8.38117 14.0387C8.76073 14.0396 9.12962 14.0751 9.48784 14.1453M9.48784 14.1453C9.1753 13.3086 9.01543 12.4225 9.01584 11.5293C9.01584 7.37067 12.4265 4 16.6345 4C20.5545 4 23.7825 6.92533 24.2078 10.6867M9.48784 14.1453C10.2255 14.2889 10.9277 14.5762 11.5545 14.9907M19.1745 10.7027C19.9913 10.419 20.8499 10.2743 21.7145 10.2747C22.5865 10.2747 23.4252 10.42 24.2078 10.6867M24.2078 10.6867C27.1892 11.7067 29.3332 14.508 29.3332 17.804C29.3332 21.4133 26.7638 24.4307 23.3332 25.164" stroke="white" stroke-width="2" stroke-linecap="round"/>
<path d="M13.333 26.4L14.857 28L18.6663 24" stroke="white" stroke-width="2" stroke-linecap="round" stroke-linejoin="round"/>
</svg>
