<svg width="32" height="32" viewBox="0 0 32 32" fill="none" xmlns="http://www.w3.org/2000/svg">
<path d="M16 22.6673V13.334M16 13.334L20 17.334M16 13.334L12 17.334" stroke="white" stroke-width="2" stroke-linecap="round" stroke-linejoin="round"/>
<path d="M21.3332 9.33398H10.6665" stroke="white" stroke-width="2" stroke-linecap="round"/>
<path opacity="0.5" d="M2.6665 16.0003C2.6665 9.71499 2.6665 6.57233 4.6185 4.61899C6.57317 2.66699 9.7145 2.66699 15.9998 2.66699C22.2852 2.66699 25.4278 2.66699 27.3798 4.61899C29.3332 6.57366 29.3332 9.71499 29.3332 16.0003C29.3332 22.2857 29.3332 25.4283 27.3798 27.3803C25.4292 29.3337 22.2852 29.3337 15.9998 29.3337C9.7145 29.3337 6.57184 29.3337 4.6185 27.3803C2.6665 25.4297 2.6665 22.2857 2.6665 16.0003Z" stroke="white" stroke-width="2"/>
</svg>
