<svg width="32" height="32" viewBox="0 0 32 32" fill="none" xmlns="http://www.w3.org/2000/svg">
<path opacity="0.5" d="M8.38141 25.3333C5.22541 25.3333 2.66675 22.8053 2.66675 19.6867C2.66675 16.568 5.22541 14.0387 8.38141 14.0387C8.76097 14.0396 9.12986 14.0751 9.48808 14.1453M9.48808 14.1453C9.17554 13.3086 9.01568 12.4225 9.01608 11.5293C9.01608 7.37067 12.4267 4 16.6347 4C20.5547 4 23.7827 6.92533 24.2081 10.6867M9.48808 14.1453C10.2257 14.2889 10.9279 14.5762 11.5547 14.9907M19.1747 10.7027C19.9915 10.419 20.8501 10.2743 21.7147 10.2747C22.5867 10.2747 23.4254 10.42 24.2081 10.6867M24.2081 10.6867C27.1894 11.7067 29.3334 14.508 29.3334 17.804C29.3334 21.4133 26.7641 24.4307 23.3334 25.164" stroke="white" stroke-width="2" stroke-linecap="round"/>
<path d="M16.0002 21.333V29.333M16.0002 21.333L18.6668 23.9997M16.0002 21.333L13.3335 23.9997" stroke="white" stroke-width="2" stroke-linecap="round" stroke-linejoin="round"/>
</svg>
